<svg viewBox="0 0 128 128" xmlns="http://www.w3.org/2000/svg" fill="none">
  <rect width="128" height="128" rx="28" fill="#FAF4E8" />
  <path d="M33 28H95V86" stroke="#0A4BA0" stroke-width="7" stroke-linecap="round" stroke-linejoin="round" />
  <path d="M64 28V60" stroke="#0A4BA0" stroke-width="5" stroke-linecap="round" />
  <path d="M33 60H95" stroke="#0A4BA0" stroke-width="5" stroke-linecap="round" />
  <circle cx="47" cy="84" r="7" fill="#1C0F00" />
  <circle cx="64" cy="82" r="7" fill="#1C0F00" />
  <circle cx="81" cy="84" r="7" fill="#1C0F00" />
  <path
    d="M25 98C33 98 33 88 41 88C49 88 49 98 57 98C65 98 65 88 73 88C81 88 81 98 89 98C97 98 97 88 105 88C113 88 113 98 121 98"
    stroke="#FF6B00"
    stroke-width="7"
    stroke-linecap="round"
  />
</svg>

